<svg width="144" height="32" viewBox="0 0 144 32" fill="none" xmlns="http://www.w3.org/2000/svg">
<path d="M28 8.70905L26.7593 12.9708L25.9672 12.1805L21.7839 16.1319L18.7806 18.9683L16.3251 21.2874L14.0129 18.9683L12.9229 17.8747L11.5739 16.5208L11.1695 16.1158L8.95471 13.8931L8.10371 14.7154L7.81883 14.9902L6.46975 16.296L5.11698 17.6036L3.72379 18.9505L3.7054 18.9683L1.71118 20.8949L0 22.5504L2.72392 18.9683L6.46975 14.0393L7.81883 12.2661L8.98595 10.7302L11.5739 13.3276L12.6803 14.4389L12.9229 14.6816L16.3747 18.1423L16.6798 17.8534L18.0289 16.5796L18.6281 16.0141L20.3723 14.3658L21.7839 13.0332L24.3718 10.5892L23.5778 9.79899L28 8.70905Z" fill="#2DFF34"/>
<path d="M6.46975 8.70905V14.0393L2.72392 18.9683H2.71289V8.70905H6.46975Z" fill="#FFCE5F"/>
<path d="M27.1545 16.0142C27.1545 23.726 20.6921 30 12.7446 30C8.69002 30 4.91844 28.3463 2.25154 25.5991C1.72587 25.0586 1.24431 24.477 0.810547 23.8562L2.46658 22.2561L5.12983 19.6855L5.87054 18.9683L6.46972 18.3903L7.81881 17.0845L8.11656 16.7973L8.82052 16.1159L8.93446 16.0035L8.9363 16.0052L8.99878 15.9446L11.5738 18.5277L12.6931 19.6516L16.3857 23.3568L18.639 21.2268L20.3851 19.5802L21.0321 18.9684L21.7838 18.2584L24.3827 15.8019L16.3378 26.5018L11.1804 21.3303L8.96566 19.1075L8.11652 19.9281L5.12979 22.8162L3.87444 24.0311C6.11864 26.3698 9.31122 27.7791 12.7446 27.7791C19.4294 27.7791 24.8662 22.5023 24.8662 16.0142H27.1545V16.0142Z" fill="#00B7FF"/>
<path d="M11.5739 5.60332V13.3276L8.98597 10.7302L7.81885 12.2662V5.60332H11.5739Z" fill="#FFCE5F"/>
<path d="M16.6798 3.08618V17.8534L16.3747 18.1424L12.923 14.6816V3.08618H16.6798Z" fill="#FFCE5F"/>
<path d="M21.7839 0V13.0333L20.3724 14.3658L18.6281 16.0142L18.0289 16.5797V0H21.7839Z" fill="#FFCE5F"/>
<path d="M34.2605 10.488H48.5405V14.448H39.5645V16.728H47.2445V20.52H39.5645V23.04H48.7085V27H34.2605V10.488ZM55.7808 14.04C57.5408 14.04 58.8848 14.736 59.8128 16.128L60.2208 14.328H64.1088V31.728H59.3328V25.848C58.4368 26.808 57.2528 27.288 55.7808 27.288C54.0688 27.288 52.7488 26.736 51.8208 25.632C50.8928 24.512 50.4288 22.864 50.4288 20.688C50.4288 18.496 50.8928 16.84 51.8208 15.72C52.7488 14.6 54.0688 14.04 55.7808 14.04ZM57.2688 17.568C55.8928 17.568 55.2048 18.384 55.2048 20.016V21.288C55.2048 22.936 55.8928 23.76 57.2688 23.76C57.9728 23.76 58.5008 23.512 58.8528 23.016C59.2048 22.504 59.3808 21.848 59.3808 21.048V20.256C59.3808 19.456 59.2048 18.808 58.8528 18.312C58.5008 17.816 57.9728 17.568 57.2688 17.568ZM75.9647 27L75.6527 25.08C75.1567 25.768 74.5007 26.312 73.6847 26.712C72.8847 27.096 72.0367 27.288 71.1407 27.288C69.6687 27.288 68.5647 26.88 67.8287 26.064C67.0927 25.248 66.7247 24.072 66.7247 22.536V14.328H71.5007V21.96C71.5007 22.504 71.6367 22.944 71.9087 23.28C72.1967 23.6 72.5967 23.76 73.1087 23.76C73.7007 23.76 74.1807 23.568 74.5487 23.184C74.9167 22.8 75.1007 22.328 75.1007 21.768V14.328H79.8767V27H75.9647ZM82.7085 12.84V9.6H87.4845V12.84H82.7085ZM82.7085 27V14.328H87.4845V27H82.7085ZM93.6527 27L88.8527 14.328H93.9887L96.3167 22.224H96.4847L98.8127 14.328H103.517L98.6687 27H93.6527ZM110.644 14.04C112.964 14.04 114.732 14.584 115.948 15.672C117.18 16.76 117.796 18.424 117.796 20.664V21.48H108.292C108.292 22.392 108.492 23.08 108.892 23.544C109.308 24.008 109.956 24.24 110.836 24.24C111.636 24.24 112.22 24.072 112.588 23.736C112.972 23.4 113.164 22.952 113.164 22.392H117.796C117.796 23.928 117.212 25.128 116.044 25.992C114.876 26.856 113.172 27.288 110.932 27.288C108.58 27.288 106.756 26.744 105.46 25.656C104.164 24.552 103.516 22.888 103.516 20.664C103.516 18.488 104.148 16.84 105.412 15.72C106.676 14.6 108.42 14.04 110.644 14.04ZM110.836 17.088C109.332 17.088 108.492 17.8 108.316 19.224H112.972C112.972 18.568 112.78 18.048 112.396 17.664C112.028 17.28 111.508 17.088 110.836 17.088ZM125.884 14.04C127.58 14.04 129.012 14.376 130.18 15.048C131.364 15.704 131.956 16.728 131.956 18.12H127.516C127.516 17.656 127.308 17.328 126.892 17.136C126.604 16.976 126.244 16.896 125.812 16.896C124.66 16.896 124.084 17.168 124.084 17.712C124.084 18.016 124.284 18.232 124.684 18.36C125.084 18.488 125.74 18.624 126.652 18.768C127.772 18.928 128.708 19.12 129.46 19.344C130.212 19.552 130.868 19.936 131.428 20.496C131.988 21.04 132.268 21.808 132.268 22.8C132.268 24.416 131.66 25.568 130.444 26.256C129.244 26.944 127.668 27.288 125.716 27.288C124.596 27.288 123.54 27.136 122.548 26.832C121.556 26.512 120.748 26.024 120.124 25.368C119.5 24.712 119.188 23.88 119.188 22.872H123.628V22.968C123.644 23.512 123.868 23.896 124.3 24.12C124.748 24.328 125.22 24.432 125.716 24.432C127.044 24.432 127.708 24.12 127.708 23.496C127.708 23.176 127.5 22.944 127.084 22.8C126.668 22.656 125.988 22.504 125.044 22.344C123.908 22.152 122.972 21.944 122.236 21.72C121.516 21.496 120.884 21.12 120.34 20.592C119.796 20.048 119.524 19.296 119.524 18.336C119.524 16.784 120.108 15.68 121.276 15.024C122.46 14.368 123.996 14.04 125.884 14.04ZM142.739 14.328V17.568H140.051V22.392C140.051 22.968 140.147 23.392 140.339 23.664C140.531 23.92 140.883 24.048 141.395 24.048H142.739V26.856C142.355 26.984 141.859 27.088 141.251 27.168C140.643 27.248 140.115 27.288 139.667 27.288C138.259 27.288 137.171 27.032 136.403 26.52C135.651 26.008 135.275 25.136 135.275 23.904V17.568H133.499V14.328H135.467L136.499 10.488H140.051V14.328H142.739Z" fill="white"/>
</svg>
